<svg xmlns="http://www.w3.org/2000/svg" viewBox="0 0 490 190"><g id="Layer_2" data-name="Layer 2"><path d="M96.93,37.47a1.8,1.8,0,0,0,.39.08,56,56,0,0,1,30.57,10.94A57.2,57.2,0,0,1,149.62,80a56.63,56.63,0,0,1,1.6,8.58,54.7,54.7,0,0,1,.28,9.49,56.86,56.86,0,0,1-5.67,22.08,58,58,0,0,1-38.92,31,54.67,54.67,0,0,1-10.11,1.39,58.52,58.52,0,0,1-8.68-.25,57.73,57.73,0,0,1-48.7-39.11A56.54,56.54,0,0,1,37,102.32a53.58,53.58,0,0,1-.44-8.86A57.85,57.85,0,0,1,81,38.9a52.34,52.34,0,0,1,9.65-1.39,2.74,2.74,0,0,0,.5-.08Zm-2.55.29a57.27,57.27,0,0,0-.87,114.53c33.46-.09,57.77-26.75,57.81-57a57.19,57.19,0,0,0-56.9-57.48Z"/><path d="M81.12,142.7l-4.42-1.36L74.85,146a4.19,4.19,0,0,1-.58-.8,1,1,0,0,1,.08-.63c.45-1.19.93-2.41,1.4-3.56v-.15l-.89-.35c-.8,1.46-1.49,3-2.23,4.51-.34-.26-.34-.26-.65-.9l.74-1.61a2,2,0,0,1-1.45-1.46l-1.25.53a7,7,0,0,0,.87,2.33l-.26.16a2.56,2.56,0,0,1-.26.09,2.64,2.64,0,0,1-.18-.38c-.26-.87-.54-1.75-.8-2.64a3.41,3.41,0,0,1,0-1,1.07,1.07,0,0,1,.2-.51.42.42,0,0,1,.59,0l.1.12a4.6,4.6,0,0,1,.19.52.79.79,0,0,0,.8-.43,1.5,1.5,0,0,0,.19-.47c.11-.45.1-.47-.3-.68s-.52-.24-.8-.37a4.74,4.74,0,0,1-.57-.31,2.11,2.11,0,0,0-.19.23l-2,3.53c-.11.18-.23.33-.39.56a5.13,5.13,0,0,1-.41-.81.81.81,0,0,1,.12-.5c.57-1,1.17-2,1.76-3l.32-.57-.68-.42-.12-.9,1.39.77c.06-.28.09-.53.15-.81a1.57,1.57,0,0,1,2.61-.91,3.25,3.25,0,0,1,.74.91,6.17,6.17,0,0,1,.8,3.09l2.56,1.07a5.26,5.26,0,0,1,.05-.93A1.54,1.54,0,0,1,78,137.84a1.52,1.52,0,0,1,.8.26,3.22,3.22,0,0,1,1,1A6.86,6.86,0,0,1,81,141.79l1.55.47.16-.1a1.08,1.08,0,0,1,1.53-.08l.08.08a1.91,1.91,0,0,1,.62,1.8c-.06.34-.17.66-.24,1s-.08.39-.12.64l1.65.29.39-2.1-1.09-.25-.31-.81a48,48,0,0,0,8.63.81l-.14-.44a4.64,4.64,0,0,1-.17-.64,1.46,1.46,0,0,1,1.12-1.75,1,1,0,0,1,.3,0,2.41,2.41,0,0,1,1.71.54,14.08,14.08,0,0,1,1.2,1.12,3.38,3.38,0,0,1,.45.55.8.8,0,0,0,1,.42c.46-.11.65.25.85.66l-.74.12c0,1.69.23,3.37.28,5.12l-1-.51-.19-2.56a10.64,10.64,0,0,0-1.71.09.69.69,0,0,0-.63.72s0,.06,0,.09a1.73,1.73,0,0,0,.5,1.09c.24.28.51.55.81.86l-.31.25a5.26,5.26,0,0,1-1.78-2.13,2.11,2.11,0,0,1-.08-.9.94.94,0,0,1,.89-.91c.41-.06.84-.06,1.27-.08l1,0-.07-1-3.79.23-.11,5.08a5.1,5.1,0,0,1-.8-.5.63.63,0,0,1-.13-.46v-4.17h-1.1c-.24,1.65-.22,3.35-.45,5.1l-.88-.65.06-1.08-.58.25a1.62,1.62,0,0,1-1.51-.07,2.46,2.46,0,0,1-1-1,1.27,1.27,0,0,1,.47-1.72,1.39,1.39,0,0,1,.56-.16,2.21,2.21,0,0,1,1.84.72c.1.1.2.22.38.42l.12-1.86c-1.3-.2-2.57-.17-3.88-.34l-.89,5-.46-.28a.71.71,0,0,1-.35-.95h0l.24-.94-1.61-.29c-.07.21-.13.41-.2.59a.47.47,0,0,1-.8.23,2.1,2.1,0,0,1-.81-1.89h.89l.2-1-.43-.32a1.79,1.79,0,0,1-.71-.85.4.4,0,0,0-.49-.3h0l-.49,1.49L80,143.9a4.39,4.39,0,0,0-.69-.18.61.61,0,0,0-.67.43.67.67,0,0,0,.2.8,1.59,1.59,0,0,0,1,.33c.17-.44.42-.62.76-.59a.82.82,0,0,1,.7.81c.05.46-.11.67-.71.89l.81,1.66-.58.22-.45-1.21-.51.21a1.85,1.85,0,0,1-2.13-.32,1.17,1.17,0,0,1-.38-1.52c-.15-.11-.33-.22-.48-.35a1,1,0,0,1-.44-1.27,1,1,0,0,1,.44-.44l.22-.15.58.87c-.43.35-.52.54-.37.8s.39.31.76,0c0-.25-.12-.52-.15-.8a1,1,0,0,1,.75-1.2,1,1,0,0,1,.49,0,9.09,9.09,0,0,1,1,.25l.64.17ZM73.41,139a4.63,4.63,0,0,0-1.16-2.75,1.18,1.18,0,0,0-1.32-.41,1.67,1.67,0,0,0-1,1.22,23.51,23.51,0,0,0,3.53,1.9Zm7.13,2.67a4.8,4.8,0,0,0-1.44-2.3,2.67,2.67,0,0,0-.66-.37,1,1,0,0,0-1,.11,1.77,1.77,0,0,0-.7,1.3,15,15,0,0,0,3.76,1.22Zm13.63,1.94a13.78,13.78,0,0,0,3.9-.23,4.48,4.48,0,0,0-2.24-1.61,2.07,2.07,0,0,0-.61-.06.92.92,0,0,0-.8.49,1.91,1.91,0,0,0-.25,1.36ZM72,139.13l-.44,1.45a.49.49,0,0,0,0,.24,1.29,1.29,0,0,0,1.45.81.59.59,0,0,0,.31-.23c.21-.42.41-.84.62-1.3Zm19.19,7.59c-.19-.19-.39-.38-.59-.55a1.57,1.57,0,0,0-1.69,0,.7.7,0,0,0-.35.64.57.57,0,0,0,.48.53,2.15,2.15,0,0,0,.8.06A3,3,0,0,0,91.19,146.72Zm-11.57-.41-.36-.17c-.12-.06-.26-.17-.38-.24a.72.72,0,0,0-1,.29.4.4,0,0,0,.09.56.31.31,0,0,0,.13.06,1.39,1.39,0,0,0,1.48-.52Zm4.18-2.41c.06-.37.14-.7.16-1s-.17-.41-.46-.31a.56.56,0,0,0-.35.46c-.07.4.13.72.65.9Z"/><path d="M94.34,50.56A44.45,44.45,0,1,1,49.59,94.71c0-.12,0-.23,0-.34A44.42,44.42,0,0,1,94.34,50.56ZM49.89,94.82a43.75,43.75,0,1,0,0-.51v.51Z"/><path d="M119.69,137.15l-.7.46c.76,1.51,1.71,2.92,2.5,4.45h-.93c-.24,0-.3-.19-.39-.35L118.56,139c-.16-.28-.33-.54-.48-.8l-.86.51,2.18,4.66c-.35,0-.69-.08-1-.14-.1,0-.19-.18-.24-.29-.24-.48-.46-1-.69-1.43-.07-.16-.15-.3-.25-.49l-1.33.63.62.35a1.26,1.26,0,0,1,.72,1.52,1.31,1.31,0,0,1-1.51.76,3.17,3.17,0,0,1-.69-.17,5.68,5.68,0,0,1-1.87-1.39c-.15-.15-.32-.34,0-.57.22.18.43.38.66.55a7.06,7.06,0,0,0,.92.62,1,1,0,0,0,1.36-.28h0c.16-.37-.08-.86-.65-1.13-.38-.19-.8-.31-1.3-.5l1.35-.66,1.33-.63-.45-1c-1.52.56-2.89,1.41-4.44,2l1.61,4.79h-.21c-.88-.19-.87-.19-1.18-1.06-.05-.14-.11-.28-.18-.45l-1.61.53c.07.22.13.39.17.56.12.38,0,.6-.44.59a2.13,2.13,0,0,1-1.61-.74c-.31-.37-.23-.69.2-.9l.44-.13-.69-2a11.47,11.47,0,0,1-2.65.68l-.33.08.27,1.36.18-.13a1.13,1.13,0,0,1,1.6.05h0a2.22,2.22,0,0,1,.58,2.91l-.81-.48c.12-.38.24-.71.33-1.05a1.46,1.46,0,0,0,0-.51.59.59,0,0,0-.67-.51.49.49,0,0,0-.23.08,1.11,1.11,0,0,0-.69,1.4c.14.59.27,1.19.42,1.83a2,2,0,0,1-1.07-.35l-.24-1.08-.37.25a1.23,1.23,0,0,1-1.52,0,3.32,3.32,0,0,1-.81-.9,1,1,0,0,1,.63-1.49,1.59,1.59,0,0,1,1.33.14c.12.07.22.15.4.27l-.31-1.55c-.33,0-.65.09-1,.15l-1.35.28c-.65.14-.72.11-1.18-.52.32-.07.6-.15.89-.2,1.4-.28,2.81-.52,4.2-.81a18.13,18.13,0,0,0,2.1-.61c.86-.28,1.69-.61,2.6-.94l-.3-.18a2.49,2.49,0,0,1-1.1-1.1,1,1,0,0,1,.35-1.41,1.2,1.2,0,0,1,.31-.13,1.65,1.65,0,0,1,1.34.09c.21.12.21.15.21.47l-.29,0a.86.86,0,0,0-1.07.46.93.93,0,0,0,.24,1.2c.09.08.2.13.29.21l.39.37c.49-.19,1.06-.37,1.6-.62a50.57,50.57,0,0,0,5.86-3,.47.47,0,0,1,.53,0ZM109.35,142l.7,2.07,1.61-.56-.71-2.05Zm-4.45,3.49a1.15,1.15,0,0,0-1.63-.09,1,1,0,0,0-.14.15.56.56,0,0,0,0,.67.61.61,0,0,0,.66.27,1.2,1.2,0,0,0,.49-.25c.21-.25.41-.52.62-.77Z"/><path d="M141.27,91.05l6.85.32v2.12l-4.43,1.29,4.49,1.27v2.07l-6.76.47a6.52,6.52,0,0,1,0-1.53l4.78-.26v-.08l-4.77-1.4V94.06l4.71-1.34v0l-4.83-.16Z"/><path d="M58.2,125.8l.88,1.14-5.29,4.32c-.37-.46-.73-.89-1.06-1.33a.42.42,0,0,1,0-.38c.54-1.32,1.08-2.64,1.61-4a.64.64,0,0,0,0-.36l-3.22,2.7a5.6,5.6,0,0,1-.91-1,58.36,58.36,0,0,1,5.22-4.32,3.79,3.79,0,0,1,1,1.18c.06.08,0,.25,0,.37q-.93,2.2-1.87,4.41a.3.3,0,0,0,0,.23l1.78-1.46Z"/><path d="M40.21,89.17l.28-1.79,4.83-1.7c-1.51-.18-3-.36-4.42-.66l.23-1.41,6.74,1.08-.25,1.61-5.13,1.8,4.71.71L47,90.15A57.69,57.69,0,0,1,40.21,89.17Z"/><path d="M126.4,51.55l-3.78,5.69c-.37-.25-.71-.49-1.08-.71a.54.54,0,0,1-.27-.59c.17-1.61.32-3.22.48-4.77a.38.38,0,0,0,0-.15,3.71,3.71,0,0,0-.68.93c-.23.32-.44.65-.65,1l-.61.94-.68,1-1.22-.8,3.79-5.71,1.55,1-.48,5,2.41-3.64A5.63,5.63,0,0,1,126.4,51.55Z"/><path d="M40.25,100.69l-.19-1.45,6.77-.88c.08.52.16,1,.21,1.44a.48.48,0,0,1-.18.34,6.13,6.13,0,0,1-.58.42l-3.64,2.62,4.74-.65.18,1.44-6.76.91c-.08-.56-.17-1.09-.22-1.61a.6.6,0,0,1,.23-.35c1.12-.81,2.25-1.61,3.38-2.47l.53-.4Z"/><path d="M54.46,120.88l-5.81,3.35a2.72,2.72,0,0,1-.3-.29,7.82,7.82,0,0,1-1.67-3.12,2.79,2.79,0,0,1,.8-2.8A3.76,3.76,0,0,1,50.92,117a2.83,2.83,0,0,1,1.47.81,3.62,3.62,0,0,1,.63.72C53.51,119.2,54,120,54.46,120.88Zm-1.82-.76c-.21-.33-.36-.58-.52-.8a1.82,1.82,0,0,0-2.09-.81,3.43,3.43,0,0,0-1.1.5c-1.08.73-1.34,2.08-.09,3.29Z"/><path d="M146.16,109.64c-.27,1-.51,1.82-.8,2.69a3.67,3.67,0,0,1-.44.86,2.85,2.85,0,0,1-2.92,1.37,4.38,4.38,0,0,1-2.3-1,2.8,2.8,0,0,1-1-2.21,8.65,8.65,0,0,1,1.07-3.84Zm-5.75-.28a2.23,2.23,0,0,0,0,2.63,2.77,2.77,0,0,0,2.67.86,2.27,2.27,0,0,0,1.41-2.09Z"/><path d="M136.79,72.38c-1.87.08-3.44-2.57-2.57-4.49a4,4,0,0,1,4.78-2.1,3.25,3.25,0,0,1,1.2,5.26A4.57,4.57,0,0,1,136.79,72.38Zm1.37-5.25a3.06,3.06,0,0,0-2.58,1.54,1.45,1.45,0,0,0,.08,1.61,1.36,1.36,0,0,0,1.38.57,3.31,3.31,0,0,0,2.41-1.53,1.37,1.37,0,0,0-.31-1.91,1.46,1.46,0,0,0-.73-.26Z"/><path d="M78.43,43.27a2.76,2.76,0,0,1,2.42,1.23,4.34,4.34,0,0,1,.8,3.33,1.46,1.46,0,0,1-.05.2,3.34,3.34,0,0,1-5.15,1.68,4.17,4.17,0,0,1-1.33-4.15,3.23,3.23,0,0,1,2.71-2.25C78.05,43.28,78.25,43.28,78.43,43.27Zm1.73,4a3.91,3.91,0,0,0-1-2.31,1.46,1.46,0,0,0-2.07.06,1.53,1.53,0,0,0-.34.61,3.36,3.36,0,0,0,1,3.05,1.43,1.43,0,0,0,2-.23,1.32,1.32,0,0,0,.26-.48,5.46,5.46,0,0,0,.1-.69Z"/><path d="M128.89,54.52a3.22,3.22,0,0,1,3.24,3.2,3.33,3.33,0,0,1-.34,1.46,3.72,3.72,0,0,1-3,2.25,3.33,3.33,0,0,1-3.14-1.55,2.87,2.87,0,0,1-.12-3.22A3.66,3.66,0,0,1,128.89,54.52ZM128.13,60h.26a1,1,0,0,0,.29-.08,3.22,3.22,0,0,0,1.88-2.08,1.39,1.39,0,0,0-.83-1.79,1.48,1.48,0,0,0-.78,0,3.06,3.06,0,0,0-2.29,2.42A1.42,1.42,0,0,0,127.91,60Z"/><path d="M113.92,44.59l1.42.66-1.07,2.41,2.24,1,1.11-2.37,1.44.64-2.84,6.23-1.44-.64L116,50l-2.24-1-1.19,2.56-1.44-.64Z"/><path d="M142.71,78.8a1.35,1.35,0,0,1-.22.14c-.92.36-1.84.72-2.76,1.1a.42.42,0,0,1-.57-.12h0A5.4,5.4,0,0,1,137.84,76a2.79,2.79,0,0,1,1.09-2,3.54,3.54,0,0,1,5,.38,2.91,2.91,0,0,1,.46.68,5.58,5.58,0,0,1,.7,2.59l-1.23.17a2.68,2.68,0,0,0-.09-.46,3.86,3.86,0,0,0-.57-1.68,1.83,1.83,0,0,0-1.82-.88,2.71,2.71,0,0,0-1.72.84,1.68,1.68,0,0,0-.46,1.26,2.79,2.79,0,0,0,.54,1.49L141,77.9l-.33-1,1.12-.44Z"/><path d="M138.68,117.24,136.39,116l.71-1.39,6,3.12a9.74,9.74,0,0,1-1.54,3,2,2,0,0,1-1.53.73,1.77,1.77,0,0,1-1.69-1.31c-.05-.21-.08-.44-.12-.7a2.77,2.77,0,0,1-1.73.09l-1.75-.41c.23-.44.44-.86.68-1.26a.41.41,0,0,1,.31-.11,5.42,5.42,0,0,1,.7.14c.28.07.56.17.8.23C138.05,118.37,138.44,118.13,138.68,117.24Zm2.71,1.43a9.07,9.07,0,0,0-1.66-.8,6.18,6.18,0,0,0-.39,1,.91.91,0,0,0,.62,1,.86.86,0,0,0,1.1-.5c.12-.26.21-.5.32-.78Z"/><path d="M53.78,58.91l1-1.09c.21.19.41.34.59.52.59.61,1.18,1.23,1.79,1.84a8.94,8.94,0,0,0,1,.8,1.2,1.2,0,0,0,1.06.22A1.06,1.06,0,0,0,60,60a1,1,0,0,0-.1-.29,4.24,4.24,0,0,0-.76-1l-2.42-2.41-.2-.23,1.16-1.16c.14.19.29.37.44.54.73.73,1.47,1.44,2.18,2.16a7.28,7.28,0,0,1,.67.8,2.47,2.47,0,0,1,.37,2.33,3,3,0,0,1-2.94,2.07,3.65,3.65,0,0,1-1-.34,4.36,4.36,0,0,1-.73-.55,1.51,1.51,0,0,1-.23-.21Z"/><path d="M47.87,105.44l.47,1.61-1.52,1,.54,1.82h1.81l.45,1.51H42.49c-.18-.61-.38-1.19-.53-1.78a.6.6,0,0,1,.19-.37c.22-.17.48-.31.72-.47l4.46-3ZM46.14,110l-.41-1.34L43.61,110v.1Z"/><path d="M140.11,106l.28-1.6,1.81-.26.32-1.87-1.61-.8.27-1.61c2.17,1,4.28,2.07,6.39,3.22l-.33,2Zm3.33-2,2.52-.25v-.09l-2.3-1Z"/><path d="M130.54,125.2l1-1.38,1.66.57a10.92,10.92,0,0,0,1.19-1.52l-1.15-1.44,1-1.31,4.31,5.71-1.19,1.65Zm4.66-1.45c-.25.45-.6.75-.81,1.17l2.34.86v-.08Z"/><path d="M65.54,49l3.66-2.1L69.85,48l-2.3,1.35.68,1.18,2.17-1.21.64,1.1-2.18,1.23.8,1.36,2.42-1.36.64,1.12-3.8,2.16Z"/><path d="M104,41.77,103.79,43l-2.63-.35L101,44c.8.27,1.61.22,2.46.44l-.18,1.24-2.41-.33a3.9,3.9,0,0,0-.23,1.55l2.68.4-.15,1.23c-1.45-.08-2.85-.39-4.33-.57l1-6.77Z"/><path d="M43.26,76.89l1.09.68a2.56,2.56,0,0,1-.22.35,2.47,2.47,0,0,0-.54,1.3A.62.62,0,0,0,44,80a.62.62,0,0,0,.7-.21c.19-.2.36-.41.53-.62a5.77,5.77,0,0,1,.67-.81A1.86,1.86,0,0,1,47.94,78a2,2,0,0,1,1.22,1.74A4.24,4.24,0,0,1,47.94,83l-.51-.3-.55-.33c.07-.12.12-.22.17-.32.18-.27.37-.53.53-.8a2.68,2.68,0,0,0,.24-.67.81.81,0,0,0-.39-1c-.31-.14-.61,0-.93.33-.15.16-.26.37-.41.52a6.31,6.31,0,0,1-1,.92,1.75,1.75,0,0,1-2.43-.47,1.73,1.73,0,0,1-.17-.33,2.51,2.51,0,0,1-.24-.93A4.28,4.28,0,0,1,43.26,76.89Z"/><path d="M129.93,126.3l.7,1.09-.41.24c-.28.17-.57.32-.81.5a2.19,2.19,0,0,0-.43.43.82.82,0,0,0-.12,1,.76.76,0,0,0,1,.2c.3-.11.58-.3.89-.4a3.6,3.6,0,0,1,1.07-.28,1.85,1.85,0,0,1,2,1.67,1.76,1.76,0,0,1-.11.82,3.07,3.07,0,0,1-.46.9,4.28,4.28,0,0,1-1.82,1.38l-.65-1.09a9.47,9.47,0,0,0,1-.6,2.91,2.91,0,0,0,.57-.64.62.62,0,0,0-.05-.72.54.54,0,0,0-.61-.12l-.86.31c-.29.11-.67.27-1,.36a1.94,1.94,0,0,1-2.39-1.34,2,2,0,0,1,0-1.14,3,3,0,0,1,.76-1.31A5.27,5.27,0,0,1,129.93,126.3Z"/><path d="M111.44,44l-.61,1c-.18-.09-.34-.19-.51-.26a4.67,4.67,0,0,0-1-.37,2.1,2.1,0,0,0-2.39,1.79,1.23,1.23,0,0,0,0,.19,2,2,0,0,0,1.43,2.38l.18,0c.39.09.8.13,1.25.19l-.12,1.24a8.69,8.69,0,0,1-.88-.07,9.74,9.74,0,0,1-1.61-.41,3.06,3.06,0,0,1-2-3.29,3.57,3.57,0,0,1,2.6-3.3A4.2,4.2,0,0,1,111.44,44Z"/><path d="M87.15,41.32l.22,1.25L84.81,43l.22,1.5,2.41-.4.23,1.27-2.41.41.43,2.69-1.54.27L83,42Z"/><path d="M146.1,79.94l.39,1.72L144,83.5,147,84l.38,1.66a5.14,5.14,0,0,1-.56-.12c-1-.31-2.09-.62-3.12-1a2.56,2.56,0,0,0-1.45,0c-.51.15-1,.27-1.53.39a4.52,4.52,0,0,0-.5.09l-.34-1.51c.81-.2,1.61-.39,2.35-.54a1.32,1.32,0,0,0,.62-.32l2.74-2.41Z"/><path d="M46.05,69.91l1.2.57-.76,1.68,5,2.32-.64,1.44c-1.69-.7-3.3-1.55-5-2.27L45,75.26l-1.17-.54C44.54,73.08,45.32,71.54,46.05,69.91Z"/><path d="M63,52.39l3.3,4.42L65,57.73l-3.32-4.34L60.2,54.46l-.73-1a38.15,38.15,0,0,1,4.16-3.22l.8,1Z"/><path d="M55.62,67.5c-1.54-1-2.94-2.16-4.45-3.22l-1.1,1.46L49,64.93l3.13-4.23,1.06.81L52.12,63l4.39,3.27a1.75,1.75,0,0,1-.16.27Z"/><path d="M92.3,40.88l5.16.08a5.06,5.06,0,0,1,.07,1.29H95.71c-.19,1.84-.08,3.65-.15,5.47H94L94,42.26l-1.74-.14Z"/><path d="M131.76,64.33l1.66,2.12-1,.8-2.67-3.32c1.73-1.47,3.53-2.83,5.31-4.32l1,1.24Z"/><path d="M60.46,128.21l1.11,1.08c-1.52,1.7-3.16,3.26-4.72,4.89L55.78,133Z"/><path d="M44.55,116.84l-.63-1.5,6.29-2.66.63,1.44Z"/><path d="M47.13,68.1l.81-1.32c2,1.07,3.89,2.31,5.9,3.44L53,71.57C51,70.46,49.12,69.25,47.13,68.1Z"/><path d="M46.83,92.19V93.8L40,93.51,40.06,92C42.31,92,44.56,92.18,46.83,92.19Z"/><path d="M126.11,135.55a1,1,0,0,1-.88,1.07h-.1a1,1,0,0,1-1.06-1,1,1,0,0,1,1-1.05h.13a.9.9,0,0,1,.92.88Z"/><path d="M64,135.56a.94.94,0,0,1-.84,1h-.12a1,1,0,0,1-1.06-1v-.09a1,1,0,0,1,1-1H63a1,1,0,0,1,1,.94Z"/><path d="M88.55,141.49a1.66,1.66,0,0,1-.26-.21.81.81,0,0,0-1.13-.14h0a.9.9,0,0,0-.4,1.11c.08.23.2.45.29.67a.25.25,0,0,1-.36,0l-.06-.07a2.51,2.51,0,0,1-.5-1.77.94.94,0,0,1,.87-.86,1.52,1.52,0,0,1,1.52.63A.53.53,0,0,1,88.55,141.49Z"/><path d="M84.71,96c-.36-1-.7-1.91-1-2.84a23.82,23.82,0,0,1-1.13-9.37,30.45,30.45,0,0,1,4.63-13.92C88.06,68.4,89,67,89.92,65.59A27.31,27.31,0,0,0,93,59.7c.32-1,.54-1.93.8-2.89a1.63,1.63,0,0,1,.07-.3c0-.09.16-.2.23-.2s.18.11.26.19,0,.1,0,.15a17.1,17.1,0,0,0,2.23,6.21c1,1.68,2,3.31,3.07,5a50.67,50.67,0,0,1,2.94,5,30,30,0,0,1,2.72,8.77,27.28,27.28,0,0,1,.34,5.19,23.92,23.92,0,0,1-1.75,8l-.45,1.13a.43.43,0,0,0,0,.16l2,.17a89,89,0,0,1,11.83,1.61,33,33,0,0,1,5.23,1.54c.62.25,1.2.57,1.79.87a3.24,3.24,0,0,1,.52.33,1.6,1.6,0,0,1,.81,2.12v0a20.56,20.56,0,0,1-2.23,5,25.36,25.36,0,0,1-7.19,7.51,35.33,35.33,0,0,1-13.27,5.74,40.57,40.57,0,0,1-10.13.88,40,40,0,0,1-15.87-3.73,29.93,29.93,0,0,1-9-6.43,22.41,22.41,0,0,1-5.23-8.73,1.14,1.14,0,0,0-.09-.3,1.55,1.55,0,0,1,.7-2,11.37,11.37,0,0,1,3-1.47,37.73,37.73,0,0,1,5.43-1.43,89.59,89.59,0,0,1,10.06-1.45l2.41-.2Zm-21.48,7.3-.1.08c.39.89.76,1.78,1.19,2.64a24.44,24.44,0,0,0,8.44,9.27,36.47,36.47,0,0,0,16.9,5.95A42.78,42.78,0,0,0,100,121a38.06,38.06,0,0,0,11.26-3.39,28.44,28.44,0,0,0,9.23-6.81,21.43,21.43,0,0,0,4.32-7.18,3.45,3.45,0,0,0,.11-.4c-.66.27-1.29.58-1.95.81a49.15,49.15,0,0,1-7.58,1.61c-1.69.22-3.39.38-5.08.55a33.6,33.6,0,0,1-8.5-.3A40.68,40.68,0,0,1,94.4,104a.86.86,0,0,0-.63,0,37.55,37.55,0,0,1-6.75,1.8,34.76,34.76,0,0,1-7.89.51,66,66,0,0,1-11.46-1.61A14.24,14.24,0,0,1,63.23,103.27ZM94.05,57.41a1.55,1.55,0,0,0-.08.23,22.16,22.16,0,0,1-2,5.32,58.69,58.69,0,0,1-3.32,5.34,34,34,0,0,0-4.94,10.87A25.93,25.93,0,0,0,83,87.68a25,25,0,0,0,2.61,9,46.69,46.69,0,0,0,4.07,6.48c.28.37.52.77.81,1.14a.47.47,0,0,0,.61.22c.8-.26,1.61-.51,2.41-.8v-7a3.29,3.29,0,0,0,0-1.21c-.14-.34-.53-.57-.81-.85l-.34-.38a3.12,3.12,0,0,1-.75-1.71.52.52,0,0,0-.05-.26h-.27a4,4,0,0,1-2.87-.81c-.49-.36-1-.75-1.46-1.12a1.32,1.32,0,0,1-.16-.25,4.5,4.5,0,0,1,1.51-1c-.3-.7-.57-1.33-1.35-1.55-.08,0-.15-.15-.27-.28a5.25,5.25,0,0,1,3-.44c-.2-.51-.42-1-.57-1.46a8.86,8.86,0,0,1-.15-3.8c.17-1.2.36-2.41.49-3.59.09-.8.09-1.6.11-2.41V74.27c0-.17-.08-.36.12-.54L91.05,75c.36-.75.62-1.48,1-2.19l1.25,1.67.21-.37c.06-.1.11-.21.18-.31.25-.37.38-.37.63,0s.32.5.49.8a15.52,15.52,0,0,1,1.36-1.78l1,2.1.75-.61c.24-.19.38-.54.8-.52,0,.37-.08.72-.1,1.07a22.51,22.51,0,0,0,.24,4.18c.15,1,.37,2,.5,3.07a7.53,7.53,0,0,1-.76,4.47l-.12.31c1.68-.09,2.56.07,3,.54a6,6,0,0,0-1,.62,2,2,0,0,0-.57,1.08c.28.15.55.28.8.43a1.39,1.39,0,0,1,.71.66c-1.35,1.09-2.59,2.35-4.49,2.14a12.45,12.45,0,0,1-.46,1.34,4.26,4.26,0,0,1-1.32,1.54.89.89,0,0,0-.38.81v7.74c.8.25,1.51.47,2.23.72a.53.53,0,0,0,.7-.22c.45-.61.9-1.2,1.33-1.82a42,42,0,0,0,3.77-6.18,24.22,24.22,0,0,0,2.48-9.84,26.89,26.89,0,0,0-1-7.93,33.75,33.75,0,0,0-4.49-9.75c-.8-1.26-1.65-2.5-2.45-3.77A25.45,25.45,0,0,1,94.05,57.41Zm3.89,47.29.28.11a44.58,44.58,0,0,0,8.13,1.13,44.13,44.13,0,0,0,5.63-.27,60.88,60.88,0,0,0,7.62-1.14,25.68,25.68,0,0,0,4.3-1.3,3.91,3.91,0,0,0,1-.6.89.89,0,0,0,.27-1.22,1,1,0,0,0-.22-.24,3.31,3.31,0,0,0-.86-.62c-.93-.46-1.88-.87-2.85-1.24A52,52,0,0,0,110.7,97.1c-1.83-.22-3.66-.4-5.49-.59-.66-.06-1.32-.1-2-.15a59.51,59.51,0,0,1-5.29,8.36Zm-7.7.06c-.18-.26-.29-.45-.42-.62a44.74,44.74,0,0,1-4.52-7,1,1,0,0,0-1.23-.69c-1.14.16-2.31.14-3.46.3-2.27.29-4.55.61-6.82,1a46.91,46.91,0,0,0-6.61,1.53,17.73,17.73,0,0,0-3.05,1.28,5,5,0,0,0-1,.68.9.9,0,0,0-.25,1.24,1,1,0,0,0,.25.25,2.71,2.71,0,0,0,.59.41,6.3,6.3,0,0,0,1,.45c1.19.35,2.41.71,3.59,1a52.25,52.25,0,0,0,6.34,1c1.75.19,3.5.34,5.25.43a34.06,34.06,0,0,0,8.12-.73c.68-.13,1.37-.29,2.15-.45ZM94,74l-.32.5a25.94,25.94,0,0,0-2.35,5.31,13.11,13.11,0,0,0-.66,4.52,7.06,7.06,0,0,0,2,4.74,1.32,1.32,0,0,0,1.19.44,2.51,2.51,0,0,1,.61,0,.92.92,0,0,0,.65-.24,5.26,5.26,0,0,0,1.49-2,8.29,8.29,0,0,0,.66-4A20.84,20.84,0,0,0,94,74Zm1.76,2.63.29.7a18,18,0,0,1,1.54,5.58,7.92,7.92,0,0,1-1.36,5.53,1.94,1.94,0,0,0-.15.24c0,.08.07,0,.08,0h.1a6.07,6.07,0,0,0,2.6-3.54,8.36,8.36,0,0,0,.06-3.45c-.17-1-.37-2-.45-3-.11-1.27-.09-2.55-.13-3.82v-.47ZM94.16,95.89l1-1c.22-.23.45-.46.66-.7A2.76,2.76,0,0,0,96.49,92a2.35,2.35,0,0,0-2.07-2.19,2.42,2.42,0,0,0-2.63,1.85,2.71,2.71,0,0,0,.76,2.63c.52.5,1,1,1.64,1.57ZM92.22,76.58l-1.28-1.11a10.15,10.15,0,0,0-1.28-1.06v.81a24.49,24.49,0,0,1-.39,5.13,14.84,14.84,0,0,0-.35,3,6.07,6.07,0,0,0,2.66,5.14l.28.16a.7.7,0,0,0-.17-.37,6.33,6.33,0,0,1-1.24-3.14,12.69,12.69,0,0,1,.37-4.83,19.47,19.47,0,0,1,1.42-3.77ZM87.08,90.26c.48.36.93.74,1.41,1.07a5.47,5.47,0,0,0,1.11.61,2.68,2.68,0,0,0,1.79.13,6.55,6.55,0,0,1,.47-1.28,7.66,7.66,0,0,1,.89-1,4.88,4.88,0,0,0-5.64.44Zm9.76,1.88h.52c1.53,0,2.5-1,3.57-1.92-1.78-1.34-4.14-1.61-5.54-.4,1,.73,1.07.86,1.48,2.3Zm-3,3.89h-.07v7.47h.73V96.08l-.38.37Zm-2.41-7.15c0-.09,0-.13,0-.15-.46-.42-.92-.86-1.39-1.28a.79.79,0,0,0-.39-.19,5.32,5.32,0,0,0-1.78,0,1.88,1.88,0,0,0-.52.15,10.12,10.12,0,0,1,.71.75,9.85,9.85,0,0,1,.52.89,5.74,5.74,0,0,1,2.85-.15Zm5.15,0a6.24,6.24,0,0,1,2.85.13l1.22-1.61a5,5,0,0,0-2.41-.08.38.38,0,0,0-.18.09Zm-1-12.59,1.25-1.1-.8-1.78L95,74.94Zm-4.41-1a7.75,7.75,0,0,0,1.16,1c.2-.4.4-.76.57-1.13a.55.55,0,0,0,0-.38,7.94,7.94,0,0,0-1-1.29Z"/><path d="M70,122c5.41.91,10.8,1.94,16.29,2.87-.44.76-1.09,1.26-1.61,2l15.7,1.33v.11l-1.31,1.07v.1c5,.28,10,.42,15,.67,0,.25-.06.32-.21.33l-3.81.4-6,.58-5.84.54-4.53.48a1.07,1.07,0,0,1-.53-.05l2.55-2.27-16.24-1.66v-.11c.4-.35.85-.64,1.28-1l1.37-1-.33-.17-11.2-3.87a4.58,4.58,0,0,1-.49-.15c-.16-.07-.12-.12-.17-.18Zm29.64,6.62,0-.13-15.52-1.36,1.69-2-3.38-.61-3.27-.58-3.32-.57a29.6,29.6,0,0,0-3.22-.53c3.38,1.21,6.79,2.33,10.22,3.61l-1.27.94-1.2.89c1.81.29,3.58.47,5.36.66s3.6.34,5.39.54,3.54.33,5.4.59l-2.36,2.15h.33l17.06-1.72h0v-.06c-2.21-.09-4.42-.16-6.64-.26s-4.39-.18-6.58-.32v-.11Z"/><path d="M197.89,91.11a11.33,11.33,0,0,1-6.08-1.42,7.83,7.83,0,0,1-3.24-4.08,18.38,18.38,0,0,1-1-6.31V65.85a17.77,17.77,0,0,1,1-6.24,7.67,7.67,0,0,1,3.24-4,14.33,14.33,0,0,1,12.23,0,7.83,7.83,0,0,1,3.25,4,17.53,17.53,0,0,1,1,6.24v13.5a17.84,17.84,0,0,1-1,6.24A8.12,8.12,0,0,1,204,89.67,11.28,11.28,0,0,1,197.89,91.11Zm0-4.84a3.45,3.45,0,0,0,2.42-.71,3.56,3.56,0,0,0,1.05-2,12.79,12.79,0,0,0,.26-2.71V64.34a12.4,12.4,0,0,0-.26-2.71,3.45,3.45,0,0,0-1.05-1.89,3.55,3.55,0,0,0-2.42-.69,3.51,3.51,0,0,0-2.35.69,3.41,3.41,0,0,0-1.07,1.89,13.05,13.05,0,0,0-.26,2.71V80.9a14.31,14.31,0,0,0,.24,2.71,3.32,3.32,0,0,0,1.05,2A3.47,3.47,0,0,0,197.89,86.27Z"/><path d="M213.39,90.63V69.13h-2.8V65h2.8V63.32a17,17,0,0,1,.42-4,4.35,4.35,0,0,1,1.78-2.64,7.22,7.22,0,0,1,4.11-.94c.56,0,1.07,0,1.53.07s1,.11,1.49.2v4.48c-.24,0-.5-.11-.78-.15a4.42,4.42,0,0,0-.78-.07,1.46,1.46,0,0,0-1.4.67,4,4,0,0,0-.37,1.95V65h5.24V63.32a17,17,0,0,1,.42-4,4.33,4.33,0,0,1,1.77-2.64,7.36,7.36,0,0,1,4.16-.94c.56,0,1.06,0,1.51.07s1,.11,1.55.2v4.48c-.24,0-.5-.11-.8-.15a4.81,4.81,0,0,0-.8-.07,1.5,1.5,0,0,0-1.44.67,4,4,0,0,0-.38,1.95V65h11.19V90.63h-6V69.13h-5.2v21.5h-6V69.13h-5.24v21.5Zm22.78-29.76v-5h5.68v5Z"/><path d="M253.8,91A8.82,8.82,0,0,1,249,89.89a6.41,6.41,0,0,1-2.62-3.24,13.66,13.66,0,0,1-.82-5V73.93a13.79,13.79,0,0,1,.82-5.06,6.29,6.29,0,0,1,2.64-3.2,9,9,0,0,1,4.75-1.11,10.15,10.15,0,0,1,4.51.87,5.24,5.24,0,0,1,2.55,2.62,10.7,10.7,0,0,1,.8,4.41V74.6H256V72.33a9,9,0,0,0-.2-2.11,1.87,1.87,0,0,0-.69-1.11,2.29,2.29,0,0,0-1.29-.33,1.93,1.93,0,0,0-1.29.42,2.46,2.46,0,0,0-.69,1.35,13.25,13.25,0,0,0-.2,2.58v9.41a7.07,7.07,0,0,0,.54,3.36,1.83,1.83,0,0,0,1.68.86,2,2,0,0,0,1.36-.4,2,2,0,0,0,.62-1.17A10.1,10.1,0,0,0,256,83.3V80.55h5.68V83a10.55,10.55,0,0,1-.82,4.39,5.59,5.59,0,0,1-2.58,2.74A9.72,9.72,0,0,1,253.8,91Z"/><path d="M272.94,91a9.12,9.12,0,0,1-4.71-1.09,6.43,6.43,0,0,1-2.68-3.2,13.32,13.32,0,0,1-.87-5.08V73.93a13.42,13.42,0,0,1,.87-5.15,6.32,6.32,0,0,1,2.7-3.16,9.38,9.38,0,0,1,4.69-1.06,8.45,8.45,0,0,1,4.77,1.15,6.25,6.25,0,0,1,2.44,3.36,17,17,0,0,1,.74,5.35v3.64H270.67v5.06a6.83,6.83,0,0,0,.25,2,2,2,0,0,0,.77,1.16,2.27,2.27,0,0,0,1.29.35,2.06,2.06,0,0,0,1.29-.37,2.19,2.19,0,0,0,.71-1.11,6.46,6.46,0,0,0,.22-1.85V81.21h5.64v1.73a8.46,8.46,0,0,1-1.95,6C277.59,90.33,275.6,91,272.94,91Zm-2.27-16h4.53V72.64a8.4,8.4,0,0,0-.22-2.15,2.15,2.15,0,0,0-.71-1.2,2.22,2.22,0,0,0-1.38-.38,1.92,1.92,0,0,0-1.28.4,2.32,2.32,0,0,0-.71,1.33,12.06,12.06,0,0,0-.23,2.67Z"/><path d="M302.64,91A9.12,9.12,0,0,1,298,90a6.43,6.43,0,0,1-2.73-3,11.58,11.58,0,0,1-.91-4.84V73.48a11.61,11.61,0,0,1,.91-4.84,6.47,6.47,0,0,1,2.73-3,9.22,9.22,0,0,1,4.61-1,9.41,9.41,0,0,1,4.65,1,6.56,6.56,0,0,1,2.75,3,11.61,11.61,0,0,1,.91,4.84V82.1a11.58,11.58,0,0,1-.91,4.84,6.52,6.52,0,0,1-2.75,3A9.3,9.3,0,0,1,302.64,91Zm.05-4.18a1.86,1.86,0,0,0,1.51-.58,3,3,0,0,0,.62-1.57,16.59,16.59,0,0,0,.13-2.2V73.09a16.07,16.07,0,0,0-.13-2.18,3.1,3.1,0,0,0-.62-1.58,2.2,2.2,0,0,0-3,0,3.2,3.2,0,0,0-.64,1.58,13.19,13.19,0,0,0-.16,2.18V82.5a13.61,13.61,0,0,0,.16,2.2,3,3,0,0,0,.64,1.57A1.86,1.86,0,0,0,302.69,86.85Z"/><path d="M315.88,90.63V69.18h-2.76V65h2.76V63.32a17,17,0,0,1,.42-4,4.31,4.31,0,0,1,1.78-2.64,7.2,7.2,0,0,1,4.1-.94c.57,0,1.1,0,1.6.07s1.07.11,1.69.2v4.48c-.24,0-.51-.11-.82-.15a5.45,5.45,0,0,0-.87-.07,1.54,1.54,0,0,0-1.46.67,3.79,3.79,0,0,0-.4,1.95V65h3.55v4.22h-3.55V90.63Z"/><path d="M345.45,90.94a7.78,7.78,0,0,1-3.84-.8,4.48,4.48,0,0,1-2-2.31,10.22,10.22,0,0,1-.57-3.6V69h-2.58V65h2.58V57.28h6.08V65h3.91v4h-3.91V83.7a2.53,2.53,0,0,0,.58,1.89,2.4,2.4,0,0,0,1.73.55c.33,0,.64,0,.95,0l.91-.09v4.62l-1.75.2A20.23,20.23,0,0,1,345.45,90.94Z"/><path d="M352.42,90.63v-36h6V67.4a10.72,10.72,0,0,1,2.91-2.09,7.91,7.91,0,0,1,3.44-.75,3.75,3.75,0,0,1,2.49.78,4.53,4.53,0,0,1,1.38,2.06,8.7,8.7,0,0,1,.44,2.8V90.63h-6V71.4a3.61,3.61,0,0,0-.36-1.78,1.44,1.44,0,0,0-1.37-.62,3.37,3.37,0,0,0-1.4.36,6.37,6.37,0,0,0-1.49.93V90.63Z"/><path d="M380.89,91a9.12,9.12,0,0,1-4.71-1.09,6.5,6.5,0,0,1-2.69-3.2,13.53,13.53,0,0,1-.86-5.08V73.93a13.62,13.62,0,0,1,.86-5.15,6.39,6.39,0,0,1,2.71-3.16,9.38,9.38,0,0,1,4.69-1.06,8.45,8.45,0,0,1,4.77,1.15,6.3,6.3,0,0,1,2.44,3.36,17,17,0,0,1,.74,5.35v3.64H378.62v5.06a6.83,6.83,0,0,0,.25,2,2,2,0,0,0,.77,1.16,2.27,2.27,0,0,0,1.29.35,2.08,2.08,0,0,0,1.29-.37,2.25,2.25,0,0,0,.71-1.11,6.46,6.46,0,0,0,.22-1.85V81.21h5.64v1.73a8.46,8.46,0,0,1-2,6Q384.88,91,380.89,91Zm-2.27-16h4.53V72.64a8.4,8.4,0,0,0-.22-2.15,2.21,2.21,0,0,0-.71-1.2,2.24,2.24,0,0,0-1.38-.38,2,2,0,0,0-1.29.4,2.44,2.44,0,0,0-.71,1.33,12.83,12.83,0,0,0-.22,2.67Z"/><path d="M188.59,139.48v-36h8.48a16,16,0,0,1,6.86,1.2,7,7,0,0,1,3.51,3.69,16.33,16.33,0,0,1,1,6.3v13.15a17.46,17.46,0,0,1-1,6.5,7.26,7.26,0,0,1-3.46,3.87,14.56,14.56,0,0,1-6.64,1.26Zm6.57-4.57h2a5.16,5.16,0,0,0,3.24-.8,3.54,3.54,0,0,0,1.2-2.33,26.44,26.44,0,0,0,.22-3.75V114.26a15.85,15.85,0,0,0-.31-3.51,3,3,0,0,0-1.28-2,6.08,6.08,0,0,0-3.16-.62h-1.91Z"/><path d="M220.25,139.88a9,9,0,0,1-4.7-1.09,6.43,6.43,0,0,1-2.69-3.19,13.34,13.34,0,0,1-.87-5.09v-7.72a13.38,13.38,0,0,1,.87-5.15,6.3,6.3,0,0,1,2.71-3.16,9.26,9.26,0,0,1,4.68-1.06,8.47,8.47,0,0,1,4.78,1.15,6.31,6.31,0,0,1,2.44,3.35,17.06,17.06,0,0,1,.73,5.36v3.64H218V132a7.21,7.21,0,0,0,.24,2,2,2,0,0,0,.78,1.16,2.3,2.3,0,0,0,1.29.35,2,2,0,0,0,1.28-.38,2.12,2.12,0,0,0,.72-1.11,6.71,6.71,0,0,0,.22-1.84v-2.13h5.64v1.73a8.44,8.44,0,0,1-2,6Q224.25,139.89,220.25,139.88ZM218,123.94h4.53V121.5a8.82,8.82,0,0,0-.22-2.15,2.16,2.16,0,0,0-.72-1.2,2.13,2.13,0,0,0-1.37-.38,2,2,0,0,0-1.29.4,2.34,2.34,0,0,0-.71,1.33,12.07,12.07,0,0,0-.22,2.66Z"/><path d="M236.82,139.88a4.88,4.88,0,0,1-3-.91,5.89,5.89,0,0,1-1.91-2.31,6.73,6.73,0,0,1-.67-2.9,8,8,0,0,1,3.25-6.8,16.25,16.25,0,0,1,3.33-1.93c1.24-.55,2.5-1,3.77-1.49v-2.22a9.69,9.69,0,0,0-.15-1.86,2.2,2.2,0,0,0-.58-1.16,1.88,1.88,0,0,0-1.31-.4,1.92,1.92,0,0,0-1.22.36,1.9,1.9,0,0,0-.67,1,6.27,6.27,0,0,0-.24,1.48l-.09,1.56-5.73-.22c.09-3,.82-5.15,2.2-6.55s3.47-2.11,6.28-2.11q3.87,0,5.62,2.13a8.79,8.79,0,0,1,1.75,5.77v11.86c0,.95,0,1.8.07,2.57s.1,1.47.18,2.09.14,1.17.2,1.64H242.5c-.09-.59-.2-1.26-.33-2s-.23-1.31-.29-1.66a6.68,6.68,0,0,1-1.69,2.82A4.52,4.52,0,0,1,236.82,139.88ZM239,135.4a2.19,2.19,0,0,0,1.08-.29,3.9,3.9,0,0,0,.91-.69,3.55,3.55,0,0,0,.58-.71v-7.15c-.65.39-1.26.77-1.84,1.16a8.21,8.21,0,0,0-1.51,1.26,5,5,0,0,0-1,1.49,4.83,4.83,0,0,0-.33,1.86,4,4,0,0,0,.55,2.25A1.77,1.77,0,0,0,239,135.4Z"/><path d="M251.47,139.48V113.82h6v2.57a13.16,13.16,0,0,1,2.91-2.15,6.85,6.85,0,0,1,3.31-.82,3.9,3.9,0,0,1,2.53.77,4.52,4.52,0,0,1,1.37,2.07,8.43,8.43,0,0,1,.45,2.8v20.42h-6V120.26a3.59,3.59,0,0,0-.36-1.78,1.42,1.42,0,0,0-1.37-.62,3.23,3.23,0,0,0-1.36.35,9.19,9.19,0,0,0-1.44.89v20.38Z"/><path d="M292.81,147.74a7.81,7.81,0,0,1-4.53-1.22,8.67,8.67,0,0,1-2.84-3.37,18.79,18.79,0,0,1-1.58-5,44.53,44.53,0,0,1-.64-6.06q-.14-3.24-.13-6.57t.13-6.75a45.43,45.43,0,0,1,.64-6.13,18.37,18.37,0,0,1,1.58-5,8.54,8.54,0,0,1,2.84-3.33,8,8,0,0,1,4.53-1.2v4.17a2.49,2.49,0,0,0-2.2,1.42,11.87,11.87,0,0,0-1.22,3.91,49.48,49.48,0,0,0-.51,5.8q-.11,3.3-.11,7.08t.11,7.15a43.85,43.85,0,0,0,.53,5.73,11.36,11.36,0,0,0,1.23,3.79,2.51,2.51,0,0,0,2.17,1.4Z"/><path d="M305.6,140a10.68,10.68,0,0,1-5.42-1.26A8,8,0,0,1,296.9,135a16,16,0,0,1-1.25-6l5.64-1.11a17.57,17.57,0,0,0,.51,3.69,5.27,5.27,0,0,0,1.29,2.46,3.09,3.09,0,0,0,2.29.87,2.55,2.55,0,0,0,2.26-1,4.07,4.07,0,0,0,.67-2.42,6.57,6.57,0,0,0-1.07-3.86,17.08,17.08,0,0,0-2.84-3l-4.53-4a13.62,13.62,0,0,1-3-3.67,10,10,0,0,1-1.13-5,8.56,8.56,0,0,1,2.48-6.58,9.61,9.61,0,0,1,6.8-2.31,10.07,10.07,0,0,1,4.22.78,6.69,6.69,0,0,1,2.68,2.16,9.64,9.64,0,0,1,1.49,3.13,18.21,18.21,0,0,1,.62,3.7l-5.59,1a19.56,19.56,0,0,0-.38-3,4.2,4.2,0,0,0-1-2.09,2.89,2.89,0,0,0-2.16-.75,2.75,2.75,0,0,0-2.24,1,3.64,3.64,0,0,0-.77,2.38,5.52,5.52,0,0,0,.75,3,11.74,11.74,0,0,0,2.18,2.42l4.48,4a18.54,18.54,0,0,1,3.8,4.37,11.2,11.2,0,0,1,1.57,6.06,9.07,9.07,0,0,1-1.13,4.58,8.1,8.1,0,0,1-3.15,3.13A9.57,9.57,0,0,1,305.6,140Z"/><path d="M325.05,139.79a7.67,7.67,0,0,1-3.84-.8,4.42,4.42,0,0,1-2-2.3,10.21,10.21,0,0,1-.58-3.6V117.81h-2.57v-4h2.57v-7.69h6.09v7.69h3.91v4h-3.91v14.75a2.52,2.52,0,0,0,.58,1.88,2.4,2.4,0,0,0,1.73.56c.32,0,.64,0,.95-.05l.91-.09v4.62l-1.75.2A17.82,17.82,0,0,1,325.05,139.79Z"/><path d="M336.06,139.88a3.91,3.91,0,0,1-2.49-.77,4.47,4.47,0,0,1-1.42-2.09,8.75,8.75,0,0,1-.44-2.78V113.82h6v19.31a3.49,3.49,0,0,0,.38,1.8,1.47,1.47,0,0,0,1.39.65,2.91,2.91,0,0,0,1.36-.36,10.75,10.75,0,0,0,1.35-.84V113.82h6v25.66h-6V137a11.75,11.75,0,0,1-2.84,2A7.09,7.09,0,0,1,336.06,139.88Z"/><path d="M358.26,139.88a5.36,5.36,0,0,1-4.64-2.17c-1.05-1.45-1.57-3.78-1.57-7v-7.86a17.71,17.71,0,0,1,.6-4.8,7.32,7.32,0,0,1,1.93-3.4,5,5,0,0,1,3.6-1.26,5.93,5.93,0,0,1,2.55.55,8.56,8.56,0,0,1,2.15,1.45V103.51h6v36h-6v-1.82a8.83,8.83,0,0,1-2.17,1.62A5.25,5.25,0,0,1,358.26,139.88Zm2.22-4.17a3.25,3.25,0,0,0,1.11-.22,6.94,6.94,0,0,0,1.29-.63V118.39a5.7,5.7,0,0,0-1.15-.6,3.6,3.6,0,0,0-1.29-.24,1.81,1.81,0,0,0-1.8,1.17,7.22,7.22,0,0,0-.51,2.87v9.59a13.38,13.38,0,0,0,.18,2.31,3.35,3.35,0,0,0,.69,1.62A1.83,1.83,0,0,0,360.48,135.71Z"/><path d="M380.82,139.88a9.07,9.07,0,0,1-4.71-1.09,6.46,6.46,0,0,1-2.68-3.19,13.34,13.34,0,0,1-.87-5.09v-7.72a13.38,13.38,0,0,1,.87-5.15,6.3,6.3,0,0,1,2.71-3.16,9.24,9.24,0,0,1,4.68-1.06,8.43,8.43,0,0,1,4.77,1.15,6.33,6.33,0,0,1,2.45,3.35,17.06,17.06,0,0,1,.73,5.36v3.64H378.56V132a7.21,7.21,0,0,0,.24,2,2,2,0,0,0,.78,1.16,2.3,2.3,0,0,0,1.29.35,2,2,0,0,0,1.28-.38,2,2,0,0,0,.71-1.11,6.3,6.3,0,0,0,.23-1.84v-2.13h5.64v1.73a8.48,8.48,0,0,1-2,6Q384.82,139.89,380.82,139.88Zm-2.26-15.94h4.53V121.5a8.29,8.29,0,0,0-.23-2.15,2.09,2.09,0,0,0-.71-1.2,2.13,2.13,0,0,0-1.37-.38,1.93,1.93,0,0,0-1.29.4,2.34,2.34,0,0,0-.71,1.33,12.07,12.07,0,0,0-.22,2.66Z"/><path d="M392.41,139.48V113.82h6v2.57a13.16,13.16,0,0,1,2.91-2.15,6.85,6.85,0,0,1,3.31-.82,3.88,3.88,0,0,1,2.53.77,4.62,4.62,0,0,1,1.38,2.07,8.7,8.7,0,0,1,.44,2.8v20.42h-6V120.26a3.71,3.71,0,0,0-.35-1.78,1.44,1.44,0,0,0-1.38-.62,3.23,3.23,0,0,0-1.36.35,9.68,9.68,0,0,0-1.44.89v20.38Z"/><path d="M420.43,139.79a7.67,7.67,0,0,1-3.84-.8,4.42,4.42,0,0,1-2-2.3,10.22,10.22,0,0,1-.57-3.6V117.81h-2.58v-4H414v-7.69h6.08v7.69H424v4h-3.91v14.75a2.52,2.52,0,0,0,.58,1.88,2.4,2.4,0,0,0,1.73.56c.33,0,.64,0,.95-.05l.92-.09v4.62l-1.76.2A17.71,17.71,0,0,1,420.43,139.79Z"/><path d="M434.29,139.88a8,8,0,0,1-5.33-1.73,9.52,9.52,0,0,1-3-5.06l4.49-1.73a8.25,8.25,0,0,0,1.42,3.19,2.81,2.81,0,0,0,2.31,1.11,2.16,2.16,0,0,0,1.6-.53,2,2,0,0,0,.53-1.46,3.19,3.19,0,0,0-.65-1.94,14.4,14.4,0,0,0-2.19-2.15L430.38,127a15.59,15.59,0,0,1-2.73-3,6.63,6.63,0,0,1-1-3.84,6.23,6.23,0,0,1,3.58-5.88,8.22,8.22,0,0,1,3.71-.82,6.83,6.83,0,0,1,5,1.84,8.61,8.61,0,0,1,2.42,4.82l-3.95,1.69a9.37,9.37,0,0,0-.64-2,4.57,4.57,0,0,0-1.09-1.49,2.34,2.34,0,0,0-1.56-.58,2,2,0,0,0-1.48.58,2.06,2.06,0,0,0-.56,1.47,2.54,2.54,0,0,0,.64,1.55,14.58,14.58,0,0,0,1.85,1.82l3.15,2.84a25.07,25.07,0,0,1,1.95,1.91,9.76,9.76,0,0,1,1.56,2.29,7.32,7.32,0,0,1-.38,6.64,6.26,6.26,0,0,1-2.71,2.29A9.17,9.17,0,0,1,434.29,139.88Z"/><path d="M443.74,147.74v-4.17a2.48,2.48,0,0,0,2.2-1.38,10.9,10.9,0,0,0,1.22-3.84,48,48,0,0,0,.54-5.75c.08-2.19.13-4.56.13-7.1s-.05-4.93-.13-7.13a53.13,53.13,0,0,0-.51-5.77,11.33,11.33,0,0,0-1.2-3.87,2.62,2.62,0,0,0-2.25-1.44v-4.13a8.08,8.08,0,0,1,4.55,1.18,8.17,8.17,0,0,1,2.87,3.33,17.9,17.9,0,0,1,1.55,5,46.37,46.37,0,0,1,.63,6.08c.08,2.18.13,4.44.13,6.78s-.05,4.41-.13,6.57a46.73,46.73,0,0,1-.63,6.08,18,18,0,0,1-1.55,5,8.57,8.57,0,0,1-2.87,3.37A7.85,7.85,0,0,1,443.74,147.74Z"/></g></svg>